<mxfile host="app.diagrams.net" modified="2023-06-17T09:59:27.733Z" agent="5.0 (Macintosh; Intel Mac OS X 10_15_7) AppleWebKit/537.36 (KHTML, like Gecko) Chrome/114.0.0.0 Safari/537.36" etag="xSO1mSNtFPBlsfQA8nxP" version="20.8.13" type="github">
  <diagram name="Page-1" id="MUAw-hYB0Qg9yWIclE1t">
    <mxGraphModel dx="2074" dy="2256" grid="1" gridSize="10" guides="1" tooltips="1" connect="1" arrows="1" fold="1" page="1" pageScale="1" pageWidth="850" pageHeight="1100" math="0" shadow="0">
      <root>
        <mxCell id="0" />
        <mxCell id="1" parent="0" />
        <mxCell id="6B4K_sBoPFnIuL-NJjv1-2" value="Back-End" style="swimlane;whiteSpace=wrap;html=1;fillColor=#f8cecc;strokeColor=#b85450;" vertex="1" parent="1">
          <mxGeometry x="30" y="40" width="220" height="350" as="geometry" />
        </mxCell>
        <mxCell id="6B4K_sBoPFnIuL-NJjv1-4" value="Front-End" style="swimlane;whiteSpace=wrap;html=1;fillColor=#d5e8d4;strokeColor=#82b366;" vertex="1" parent="1">
          <mxGeometry x="430" y="40" width="320" height="350" as="geometry" />
        </mxCell>
        <mxCell id="6B4K_sBoPFnIuL-NJjv1-21" value="Docker" style="swimlane;whiteSpace=wrap;html=1;fillColor=#dae8fc;strokeColor=#6c8ebf;fillStyle=auto;strokeWidth=2;" vertex="1" parent="1">
          <mxGeometry x="10" y="-100" width="760" height="610" as="geometry" />
        </mxCell>
        <mxCell id="6B4K_sBoPFnIuL-NJjv1-23" value="Hashed passwords" style="rounded=0;whiteSpace=wrap;html=1;fillStyle=auto;strokeWidth=1;" vertex="1" parent="6B4K_sBoPFnIuL-NJjv1-21">
          <mxGeometry x="35" y="330" width="120" height="60" as="geometry" />
        </mxCell>
        <mxCell id="6B4K_sBoPFnIuL-NJjv1-25" style="edgeStyle=orthogonalEdgeStyle;rounded=0;orthogonalLoop=1;jettySize=auto;html=1;" edge="1" parent="6B4K_sBoPFnIuL-NJjv1-21" source="6B4K_sBoPFnIuL-NJjv1-9" target="6B4K_sBoPFnIuL-NJjv1-23">
          <mxGeometry relative="1" as="geometry" />
        </mxCell>
        <mxCell id="6B4K_sBoPFnIuL-NJjv1-9" value="Postgre" style="shape=cylinder3;whiteSpace=wrap;html=1;boundedLbl=1;backgroundOutline=1;size=15;fillColor=#ffe6cc;strokeColor=#d79b00;" vertex="1" parent="6B4K_sBoPFnIuL-NJjv1-21">
          <mxGeometry x="155" y="510" width="60" height="80" as="geometry" />
        </mxCell>
        <mxCell id="6B4K_sBoPFnIuL-NJjv1-87" style="edgeStyle=orthogonalEdgeStyle;rounded=0;orthogonalLoop=1;jettySize=auto;html=1;entryX=0;entryY=0.5;entryDx=0;entryDy=0;entryPerimeter=0;" edge="1" parent="6B4K_sBoPFnIuL-NJjv1-21" source="6B4K_sBoPFnIuL-NJjv1-10" target="6B4K_sBoPFnIuL-NJjv1-9">
          <mxGeometry relative="1" as="geometry" />
        </mxCell>
        <mxCell id="6B4K_sBoPFnIuL-NJjv1-10" value="SQL" style="ellipse;whiteSpace=wrap;html=1;fillColor=#ffe6cc;strokeColor=#d79b00;" vertex="1" parent="6B4K_sBoPFnIuL-NJjv1-21">
          <mxGeometry x="60" y="520" width="70" height="60" as="geometry" />
        </mxCell>
        <mxCell id="6B4K_sBoPFnIuL-NJjv1-3" value="NestJS" style="ellipse;whiteSpace=wrap;html=1;fillColor=#fff2cc;strokeColor=#d6b656;" vertex="1" parent="6B4K_sBoPFnIuL-NJjv1-21">
          <mxGeometry x="35" y="180" width="120" height="80" as="geometry" />
        </mxCell>
        <mxCell id="6B4K_sBoPFnIuL-NJjv1-26" style="edgeStyle=orthogonalEdgeStyle;rounded=0;orthogonalLoop=1;jettySize=auto;html=1;" edge="1" parent="6B4K_sBoPFnIuL-NJjv1-21" source="6B4K_sBoPFnIuL-NJjv1-23" target="6B4K_sBoPFnIuL-NJjv1-3">
          <mxGeometry relative="1" as="geometry" />
        </mxCell>
        <mxCell id="6B4K_sBoPFnIuL-NJjv1-88" style="edgeStyle=orthogonalEdgeStyle;rounded=0;orthogonalLoop=1;jettySize=auto;html=1;" edge="1" parent="6B4K_sBoPFnIuL-NJjv1-21" source="6B4K_sBoPFnIuL-NJjv1-34" target="6B4K_sBoPFnIuL-NJjv1-46">
          <mxGeometry relative="1" as="geometry" />
        </mxCell>
        <mxCell id="6B4K_sBoPFnIuL-NJjv1-34" value="OAuth" style="shape=hexagon;perimeter=hexagonPerimeter2;whiteSpace=wrap;html=1;fixedSize=1;fillStyle=auto;strokeWidth=1;fillColor=#f5f5f5;fontColor=#333333;strokeColor=#666666;" vertex="1" parent="6B4K_sBoPFnIuL-NJjv1-21">
          <mxGeometry x="270" y="280" width="120" height="80" as="geometry" />
        </mxCell>
        <mxCell id="6B4K_sBoPFnIuL-NJjv1-45" style="edgeStyle=orthogonalEdgeStyle;rounded=0;orthogonalLoop=1;jettySize=auto;html=1;entryX=0.5;entryY=1;entryDx=0;entryDy=0;" edge="1" parent="6B4K_sBoPFnIuL-NJjv1-21" source="6B4K_sBoPFnIuL-NJjv1-35" target="6B4K_sBoPFnIuL-NJjv1-34">
          <mxGeometry relative="1" as="geometry" />
        </mxCell>
        <mxCell id="6B4K_sBoPFnIuL-NJjv1-35" value="42 Intra API" style="ellipse;whiteSpace=wrap;html=1;fillStyle=auto;strokeWidth=1;fillColor=#f5f5f5;strokeColor=#666666;fontColor=#333333;" vertex="1" parent="6B4K_sBoPFnIuL-NJjv1-21">
          <mxGeometry x="270" y="420" width="120" height="80" as="geometry" />
        </mxCell>
        <mxCell id="6B4K_sBoPFnIuL-NJjv1-46" value="MFA (Google authenticator)" style="shape=hexagon;perimeter=hexagonPerimeter2;whiteSpace=wrap;html=1;fixedSize=1;fillStyle=auto;strokeWidth=1;fillColor=#f5f5f5;fontColor=#333333;strokeColor=#666666;" vertex="1" parent="6B4K_sBoPFnIuL-NJjv1-21">
          <mxGeometry x="270" y="160" width="120" height="80" as="geometry" />
        </mxCell>
        <mxCell id="6B4K_sBoPFnIuL-NJjv1-76" value="Chat" style="rounded=0;whiteSpace=wrap;html=1;fillStyle=auto;strokeWidth=1;fillColor=#e1d5e7;strokeColor=#9673a6;" vertex="1" parent="6B4K_sBoPFnIuL-NJjv1-21">
          <mxGeometry x="450" y="280" width="110" height="90" as="geometry" />
        </mxCell>
        <mxCell id="6B4K_sBoPFnIuL-NJjv1-78" style="edgeStyle=orthogonalEdgeStyle;rounded=0;orthogonalLoop=1;jettySize=auto;html=1;entryX=0.5;entryY=1;entryDx=0;entryDy=0;" edge="1" parent="6B4K_sBoPFnIuL-NJjv1-21" source="6B4K_sBoPFnIuL-NJjv1-77" target="6B4K_sBoPFnIuL-NJjv1-76">
          <mxGeometry relative="1" as="geometry" />
        </mxCell>
        <mxCell id="6B4K_sBoPFnIuL-NJjv1-77" value="WebSocket" style="ellipse;whiteSpace=wrap;html=1;fillColor=#e1d5e7;strokeColor=#9673a6;" vertex="1" parent="6B4K_sBoPFnIuL-NJjv1-21">
          <mxGeometry x="470" y="420" width="70" height="60" as="geometry" />
        </mxCell>
        <mxCell id="6B4K_sBoPFnIuL-NJjv1-79" value="Game" style="rounded=0;whiteSpace=wrap;html=1;fillStyle=auto;strokeWidth=1;fillColor=#ffcccc;strokeColor=#36393d;" vertex="1" parent="6B4K_sBoPFnIuL-NJjv1-21">
          <mxGeometry x="590" y="280" width="110" height="90" as="geometry" />
        </mxCell>
        <mxCell id="6B4K_sBoPFnIuL-NJjv1-82" style="edgeStyle=orthogonalEdgeStyle;rounded=0;orthogonalLoop=1;jettySize=auto;html=1;entryX=0.5;entryY=1;entryDx=0;entryDy=0;" edge="1" parent="6B4K_sBoPFnIuL-NJjv1-21" source="6B4K_sBoPFnIuL-NJjv1-80" target="6B4K_sBoPFnIuL-NJjv1-79">
          <mxGeometry relative="1" as="geometry" />
        </mxCell>
        <mxCell id="6B4K_sBoPFnIuL-NJjv1-80" value="Canvas" style="ellipse;whiteSpace=wrap;html=1;fillColor=#ffcccc;strokeColor=#36393d;" vertex="1" parent="6B4K_sBoPFnIuL-NJjv1-21">
          <mxGeometry x="570" y="420" width="70" height="60" as="geometry" />
        </mxCell>
        <mxCell id="6B4K_sBoPFnIuL-NJjv1-83" style="edgeStyle=orthogonalEdgeStyle;rounded=0;orthogonalLoop=1;jettySize=auto;html=1;entryX=0.5;entryY=1;entryDx=0;entryDy=0;" edge="1" parent="6B4K_sBoPFnIuL-NJjv1-21" source="6B4K_sBoPFnIuL-NJjv1-81" target="6B4K_sBoPFnIuL-NJjv1-79">
          <mxGeometry relative="1" as="geometry" />
        </mxCell>
        <mxCell id="6B4K_sBoPFnIuL-NJjv1-81" value="3D" style="ellipse;whiteSpace=wrap;html=1;fillColor=#ffcccc;strokeColor=#36393d;" vertex="1" parent="6B4K_sBoPFnIuL-NJjv1-21">
          <mxGeometry x="660" y="420" width="70" height="60" as="geometry" />
        </mxCell>
        <mxCell id="6B4K_sBoPFnIuL-NJjv1-84" style="edgeStyle=orthogonalEdgeStyle;rounded=0;orthogonalLoop=1;jettySize=auto;html=1;entryX=0;entryY=0.5;entryDx=0;entryDy=0;" edge="1" parent="6B4K_sBoPFnIuL-NJjv1-21" source="6B4K_sBoPFnIuL-NJjv1-6" target="6B4K_sBoPFnIuL-NJjv1-7">
          <mxGeometry relative="1" as="geometry" />
        </mxCell>
        <mxCell id="6B4K_sBoPFnIuL-NJjv1-6" value="React/Vue" style="ellipse;whiteSpace=wrap;html=1;fillColor=#fff2cc;strokeColor=#d6b656;" vertex="1" parent="6B4K_sBoPFnIuL-NJjv1-21">
          <mxGeometry x="440" y="180" width="120" height="80" as="geometry" />
        </mxCell>
        <mxCell id="6B4K_sBoPFnIuL-NJjv1-7" value="TypeScript" style="ellipse;whiteSpace=wrap;html=1;fillColor=#fff2cc;strokeColor=#d6b656;" vertex="1" parent="6B4K_sBoPFnIuL-NJjv1-21">
          <mxGeometry x="630" y="195" width="90" height="50" as="geometry" />
        </mxCell>
        <mxCell id="6B4K_sBoPFnIuL-NJjv1-89" style="edgeStyle=orthogonalEdgeStyle;rounded=0;orthogonalLoop=1;jettySize=auto;html=1;entryX=1;entryY=0.5;entryDx=0;entryDy=0;" edge="1" parent="6B4K_sBoPFnIuL-NJjv1-21" source="6B4K_sBoPFnIuL-NJjv1-17" target="6B4K_sBoPFnIuL-NJjv1-79">
          <mxGeometry relative="1" as="geometry">
            <Array as="points">
              <mxPoint x="730" y="80" />
              <mxPoint x="730" y="325" />
            </Array>
          </mxGeometry>
        </mxCell>
        <mxCell id="6B4K_sBoPFnIuL-NJjv1-17" value="JavaScript" style="ellipse;whiteSpace=wrap;html=1;fillColor=#fff2cc;strokeColor=#d6b656;" vertex="1" parent="6B4K_sBoPFnIuL-NJjv1-21">
          <mxGeometry x="270" y="40" width="120" height="80" as="geometry" />
        </mxCell>
        <mxCell id="6B4K_sBoPFnIuL-NJjv1-18" style="edgeStyle=orthogonalEdgeStyle;rounded=0;orthogonalLoop=1;jettySize=auto;html=1;" edge="1" parent="6B4K_sBoPFnIuL-NJjv1-21" source="6B4K_sBoPFnIuL-NJjv1-17" target="6B4K_sBoPFnIuL-NJjv1-6">
          <mxGeometry relative="1" as="geometry" />
        </mxCell>
        <mxCell id="6B4K_sBoPFnIuL-NJjv1-19" style="edgeStyle=orthogonalEdgeStyle;rounded=0;orthogonalLoop=1;jettySize=auto;html=1;entryX=0.5;entryY=0;entryDx=0;entryDy=0;" edge="1" parent="6B4K_sBoPFnIuL-NJjv1-21" source="6B4K_sBoPFnIuL-NJjv1-17" target="6B4K_sBoPFnIuL-NJjv1-3">
          <mxGeometry relative="1" as="geometry" />
        </mxCell>
      </root>
    </mxGraphModel>
  </diagram>
</mxfile>
